<svg width="171" height="118" viewBox="0 0 171 118" fill="none" xmlns="http://www.w3.org/2000/svg">
<g clip-path="url(#clip0_54_157)">
<path d="M10.3436 93.2319C12.4344 97.6664 24.8687 118 78.6776 118C132.156 118 145.691 97.8827 148.112 93.3401C144.261 97.5582 114.88 100.803 79.2278 100.803C43.4652 100.695 13.8649 97.4501 10.3436 93.2319Z" fill="url(#paint0_linear_54_157)"/>
<path d="M79.3379 97.7744C117.625 97.7744 148.662 94.4816 148.662 90.4197C148.662 86.3578 117.625 83.0649 79.3379 83.0649C41.0511 83.0649 10.0135 86.3578 10.0135 90.4197C10.0135 94.4816 41.0511 97.7744 79.3379 97.7744Z" fill="#2D2A2A"/>
<path d="M125.774 86.4179V77.1164L134.687 71.9248H142.72L132.707 77.6572V87.3913L125.774 86.4179Z" fill="#2D2A2A"/>
<path d="M134.577 70.9514V70.4106C134.577 69.7616 134.907 69.1127 135.568 68.7882L155.044 57.8643C155.485 57.648 156.035 57.4316 156.585 57.4316H169.9C170.56 57.4316 171 57.9724 171 58.5132V59.4866C171 60.1356 170.67 60.6764 170.12 61.0008L142.39 75.3858C142.06 75.494 141.73 75.6021 141.4 75.6021H137.768L145.691 70.8432L134.577 70.9514Z" fill="#2D2A2A"/>
<path d="M25.639 18.6031C25.639 9.73419 30.7008 0 40.8244 0C44.4556 0 50.0676 1.51421 50.0676 5.94867C50.0676 8.32814 48.417 9.62603 45.7761 9.62603C44.0155 9.62603 46.3263 5.73236 41.0444 5.73236C34.9923 5.73236 32.3514 11.7892 32.3514 16.9808C32.3514 24.7681 37.7433 28.0128 41.3746 28.0128C48.197 28.0128 48.7472 22.0642 49.0773 22.0642C49.6275 22.0642 49.9576 25.3089 49.9576 25.7415C49.9576 31.7984 45.2259 35.3676 39.3939 35.3676C30.0406 35.3676 25.639 26.9313 25.639 18.6031Z" fill="#2D2A2A"/>
<path d="M71.7452 34.7186C71.3051 34.7186 70.2047 34.7186 70.2047 34.0697C70.2047 33.8534 70.2047 33.6371 70.3147 33.5289C71.7452 29.7434 72.9557 25.9579 72.9557 21.8479C72.9557 19.0358 71.8553 18.1705 68.9943 18.1705C64.8128 18.1705 60.3012 20.1174 60.3012 24.8763C60.3012 27.7965 60.8514 31.0413 62.0618 33.7452C62.1719 33.9615 62.2819 34.1779 62.2819 34.3942C62.2819 34.935 61.2916 34.8268 60.9615 34.8268H54.7993C53.5889 34.8268 53.5889 23.0376 53.5889 21.3071C53.5889 18.2787 54.4692 0.757135 56.4499 0.757135H62.1719C62.392 0.757135 63.3823 0.648977 63.3823 1.08161C63.3823 1.6224 60.5213 7.57107 60.5213 11.8974C60.5213 12.8708 60.8514 13.9524 61.5116 13.9524C62.8321 13.9524 62.8321 12.7626 68.4441 12.7626C70.5348 12.7626 72.0754 13.1953 72.0754 11.4647C72.0754 7.57107 68.4441 1.73055 68.4441 1.18977C68.4441 0.648977 69.6545 0.757135 69.9846 0.757135H75.4866C77.0271 0.757135 79.1178 12.5463 79.1178 21.3071C79.1178 23.2539 79.1178 34.8268 77.7974 34.8268H71.7452V34.7186Z" fill="#2D2A2A"/>
<path d="M84.9498 34.7186C82.7491 34.8267 83.4093 33.3125 83.1892 25.0925C83.1892 19.5765 85.5 0.648896 86.7104 0.648896H103.106C103.656 0.648896 105.087 0.540738 105.087 1.29784C105.087 1.62231 102.446 7.35467 101.896 7.35467C101.236 7.35467 100.025 5.40783 95.8436 5.40783C92.9826 5.40783 89.9016 7.13836 89.9016 11.032C89.9016 11.8973 90.1216 13.4115 91.222 13.4115C92.5425 13.4115 95.5135 11.4647 99.0348 11.4647C99.585 11.4647 100.905 11.681 100.905 12.3299C100.905 12.3299 98.5946 19.0357 98.0444 19.0357C97.6043 19.0357 96.0637 18.1704 94.4132 18.1704C92.3224 18.1704 89.2413 19.6846 89.2413 23.7946C89.2413 27.0394 91.002 29.4188 94.5232 29.4188C98.7047 29.4188 101.236 26.7149 102.226 26.7149C102.886 26.7149 105.637 33.637 105.637 34.0696C105.637 34.8267 104.647 34.7186 104.097 34.7186H84.9498Z" fill="#2D2A2A"/>
<path d="M128.085 0.64894C128.635 0.64894 130.066 0.540782 130.066 1.29789C130.066 1.62236 127.425 7.35471 126.875 7.35471C126.214 7.35471 124.894 5.40788 120.822 5.40788C117.961 5.40788 114.88 7.1384 114.88 11.0321C114.88 13.5197 114.99 14.2768 116.201 14.2768C118.952 14.2768 119.172 12.4381 124.674 12.4381C125.114 12.4381 126.104 12.4381 126.104 13.0871C126.104 13.3034 124.454 19.6847 123.794 19.6847C123.353 19.6847 122.253 19.1439 120.602 19.1439C116.971 19.1439 115.1 21.1989 115.1 24.5518C115.1 28.121 116.751 33.8533 116.751 34.286C116.751 34.8267 115.761 34.6104 115.321 34.6104H110.369C109.378 34.6104 108.058 35.3675 108.058 20.0092C108.058 -0.216323 110.259 0.540782 110.919 0.540782H128.085V0.64894Z" fill="#2D2A2A"/>
<path d="M32.7915 33.6367C33.3417 33.6367 34.5522 33.6367 34.5522 34.7183C34.5522 35.1509 33.1217 39.9099 33.1217 42.722C33.1217 43.4791 33.2317 44.2362 34.222 44.2362C34.7722 44.2362 35.4325 44.0199 36.2027 43.6954C37.083 43.4791 37.9634 43.1546 39.0637 43.1546C43.2452 43.1546 48.9672 46.832 48.9672 56.8906C48.9672 62.4067 47.5367 66.8411 44.0155 70.843C42.585 72.4653 40.0541 74.6285 36.3128 74.6285H27.7298C25.9691 74.6285 26.1892 58.6211 26.1892 57.4314C26.1892 55.1601 25.9691 33.7449 28.1699 33.7449H32.7915V33.6367ZM42.3649 57.4314C42.3649 49.5359 38.9537 47.6972 36.863 47.6972C33.4518 47.6972 32.6815 49.4277 32.6815 56.3498C32.6815 66.733 35.2124 66.5167 36.4228 66.5167C41.1545 66.5167 42.3649 61.0006 42.3649 57.4314Z" fill="#2D2A2A"/>
<path d="M50.9479 59.1621C50.9479 51.4829 54.6892 43.1548 63.1622 43.1548C71.6351 43.1548 75.3764 51.4829 75.3764 59.1621C75.3764 70.4105 68.7741 75.2776 63.1622 75.2776C57.5502 75.2776 50.9479 70.4105 50.9479 59.1621ZM69.4344 57.8642C69.4344 54.0787 68.1139 48.6708 63.2722 48.6708C58.4305 48.6708 57.11 54.0787 57.11 57.8642C57.11 61.6497 58.4305 67.1658 63.2722 67.1658C68.1139 67.1658 69.4344 61.7579 69.4344 57.8642Z" fill="#2D2A2A"/>
<path d="M108.388 43.8039C110.369 43.8039 110.699 43.6958 110.699 48.5628C110.699 65.9762 101.125 75.1696 99.9151 75.1696C98.5946 75.1696 95.9537 69.9781 95.4035 68.7883C95.2934 68.4638 94.3031 66.0844 93.6428 66.0844C93.2027 66.0844 92.5425 67.3823 92.3224 67.8149C91.7722 68.8965 88.361 75.2778 87.0405 75.2778C85.5 75.2778 77.4672 64.8946 77.4672 49.1036C77.4672 43.2631 78.2374 43.9121 80.1081 43.9121H83.9594C84.5096 43.9121 85.0598 43.9121 85.0598 44.6692C85.0598 45.1018 84.5096 46.2915 84.5096 50.6178C84.5096 58.8378 86.8204 65.2191 87.5907 65.2191C88.471 65.2191 91.7722 61.9744 91.5521 49.8607C91.5521 48.1302 91.222 45.5344 91.222 44.7773C91.222 44.2365 91.4421 44.0202 91.9923 44.0202H96.834C97.2741 44.0202 97.9344 44.0202 97.9344 44.6692C97.9344 45.21 97.4942 48.2384 97.4942 50.726C97.4942 59.7031 99.805 65.2191 100.905 65.2191C102.116 65.2191 104.537 58.4052 104.537 51.2668C104.537 48.1302 103.876 45.9671 103.876 44.6692C103.876 43.8039 104.977 43.9121 105.637 43.9121H108.388V43.8039Z" fill="#2D2A2A"/>
<path d="M115.871 74.5205C114.11 74.5205 114.33 58.5131 114.33 57.3234C114.33 55.0521 114.11 33.6369 116.311 33.6369H120.933C121.483 33.6369 122.913 33.5287 122.913 34.5021C122.913 34.8266 120.822 41.6405 120.822 53.646C120.822 66.8413 122.693 73.3307 122.693 73.8715C122.693 74.7368 121.373 74.4123 120.933 74.4123H115.871V74.5205Z" fill="#2D2A2A"/>
<path d="M22.8881 74.6289L20.2472 82.0918L28.3901 80.1449L22.8881 74.6289Z" fill="url(#paint1_linear_54_157)"/>
<path d="M50.1777 86.3096L46.2163 89.8788L51.7182 91.2848L50.1777 86.3096Z" fill="url(#paint2_linear_54_157)"/>
<path d="M20.3572 50.7261L16.2858 54.4034L21.7877 55.8095L20.3572 50.7261Z" fill="url(#paint3_linear_54_157)"/>
<path d="M94.6333 87.7158L93.6429 93.0155L98.9248 90.8524L94.6333 87.7158Z" fill="url(#paint4_linear_54_157)"/>
<path d="M28.6101 89.3382L31.141 91.285L31.4711 87.9321L28.6101 89.3382Z" fill="white"/>
<path d="M114.11 79.604L111.469 87.0669L119.612 85.12L114.11 79.604Z" fill="url(#paint5_linear_54_157)"/>
<path d="M21.4575 65.1107C21.4575 66.5167 20.2471 67.5983 18.9266 67.5983C17.4961 67.5983 16.3958 66.4086 16.3958 65.1107C16.3958 63.7046 17.6062 62.623 18.9266 62.623C20.2471 62.623 21.4575 63.7046 21.4575 65.1107Z" fill="#2D2A2A"/>
<path d="M71.415 85.3366C72.8128 85.3366 73.9459 84.2228 73.9459 82.849C73.9459 81.4751 72.8128 80.3613 71.415 80.3613C70.0173 80.3613 68.8842 81.4751 68.8842 82.849C68.8842 84.2228 70.0173 85.3366 71.415 85.3366Z" fill="url(#paint6_linear_54_157)"/>
<path d="M12.5444 76.9C13.0914 76.9 13.5348 76.4641 13.5348 75.9265C13.5348 75.3889 13.0914 74.9531 12.5444 74.9531C11.9975 74.9531 11.5541 75.3889 11.5541 75.9265C11.5541 76.4641 11.9975 76.9 12.5444 76.9Z" fill="#2D2A2A"/>
<path d="M77.7973 88.365C77.7973 88.9058 77.3572 89.3384 76.807 89.3384C76.2568 89.3384 75.8167 88.9058 75.8167 88.365C75.8167 87.8242 76.2568 87.3916 76.807 87.3916C77.3572 87.3916 77.7973 87.8242 77.7973 88.365Z" fill="white"/>
<path d="M103.326 92.0423C103.326 92.5831 102.886 93.0157 102.336 93.0157C101.786 93.0157 101.346 92.5831 101.346 92.0423C101.346 91.5015 101.786 91.0688 102.336 91.0688C102.776 91.0688 103.326 91.5015 103.326 92.0423Z" fill="white"/>
<path d="M123.793 88.6892C123.793 89.23 123.353 89.6627 122.803 89.6627C122.253 89.6627 121.813 89.23 121.813 88.6892C121.813 88.1485 122.253 87.7158 122.803 87.7158C123.353 87.7158 123.793 88.1485 123.793 88.6892Z" fill="white"/>
<path d="M55.5696 80.6856C56.1165 80.6856 56.5599 80.2498 56.5599 79.7122C56.5599 79.1746 56.1165 78.7388 55.5696 78.7388C55.0226 78.7388 54.5792 79.1746 54.5792 79.7122C54.5792 80.2498 55.0226 80.6856 55.5696 80.6856Z" fill="#2D2A2A"/>
<path d="M149.873 57.1072C149.873 57.648 149.433 58.0806 148.882 58.0806C148.332 58.0806 147.892 57.648 147.892 57.1072C147.892 56.5664 148.332 56.1338 148.882 56.1338C149.433 56.1338 149.873 56.5664 149.873 57.1072Z" fill="url(#paint7_linear_54_157)"/>
<path d="M11.224 66.1927C11.224 66.7335 10.7838 67.1661 10.2336 67.1661C9.68344 67.1661 9.24329 66.7335 9.24329 66.1927C9.24329 65.6519 9.68344 65.2192 10.2336 65.2192C10.6738 65.2192 11.224 65.6519 11.224 66.1927Z" fill="#2D2A2A"/>
<path d="M87.0406 80.3609C87.5876 80.3609 88.031 79.9251 88.031 79.3875C88.031 78.8499 87.5876 78.4141 87.0406 78.4141C86.4937 78.4141 86.0503 78.8499 86.0503 79.3875C86.0503 79.9251 86.4937 80.3609 87.0406 80.3609Z" fill="#2D2A2A"/>
<path d="M132.376 45.5344C132.376 46.0752 131.936 46.5078 131.386 46.5078C130.836 46.5078 130.396 46.0752 130.396 45.5344C130.396 44.9936 130.836 44.561 131.386 44.561C131.936 44.4528 132.376 44.8855 132.376 45.5344Z" fill="#2D2A2A"/>
<path d="M107.508 79.9283C108.055 79.9283 108.498 79.4925 108.498 78.9549C108.498 78.4173 108.055 77.9814 107.508 77.9814C106.961 77.9814 106.517 78.4173 106.517 78.9549C106.517 79.4925 106.961 79.9283 107.508 79.9283Z" fill="#2D2A2A"/>
<path d="M132.597 64.8948C132.597 65.4356 132.156 65.8682 131.606 65.8682C131.056 65.8682 130.616 65.4356 130.616 64.8948C130.616 64.354 131.056 63.9214 131.606 63.9214C132.156 63.9214 132.597 64.354 132.597 64.8948Z" fill="url(#paint8_linear_54_157)"/>
<path d="M141.29 53.1053C141.29 54.5114 140.079 55.5929 138.759 55.5929C137.328 55.5929 136.228 54.4032 136.228 53.1053C136.228 51.6993 137.438 50.6177 138.759 50.6177C140.079 50.6177 141.29 51.6993 141.29 53.1053Z" fill="#2D2A2A"/>
</g>
<defs>
<linearGradient id="paint0_linear_54_157" x1="79.2535" y1="87.6322" x2="79.2535" y2="119.75" gradientUnits="userSpaceOnUse">
<stop stop-color="#FBB040"/>
<stop offset="1" stop-color="#F99441"/>
</linearGradient>
<linearGradient id="paint1_linear_54_157" x1="21.5641" y1="78.3857" x2="28.1688" y2="80.7252" gradientUnits="userSpaceOnUse">
<stop stop-color="#FBB040"/>
<stop offset="1" stop-color="#F99441"/>
</linearGradient>
<linearGradient id="paint2_linear_54_157" x1="48.1843" y1="88.0808" x2="51.3493" y2="91.5617" gradientUnits="userSpaceOnUse">
<stop stop-color="#FBB040"/>
<stop offset="1" stop-color="#F99441"/>
</linearGradient>
<linearGradient id="paint3_linear_54_157" x1="18.3152" y1="52.5777" x2="21.4802" y2="56.0585" gradientUnits="userSpaceOnUse">
<stop stop-color="#FBB040"/>
<stop offset="1" stop-color="#F99441"/>
</linearGradient>
<linearGradient id="paint4_linear_54_157" x1="94.1399" y1="90.3325" x2="98.8069" y2="91.1958" gradientUnits="userSpaceOnUse">
<stop stop-color="#FBB040"/>
<stop offset="1" stop-color="#F99441"/>
</linearGradient>
<linearGradient id="paint5_linear_54_157" x1="112.815" y1="83.3571" x2="119.419" y2="85.6965" gradientUnits="userSpaceOnUse">
<stop stop-color="#FBB040"/>
<stop offset="1" stop-color="#F99441"/>
</linearGradient>
<linearGradient id="paint6_linear_54_157" x1="68.8511" y1="82.8618" x2="74.0128" y2="82.8618" gradientUnits="userSpaceOnUse">
<stop stop-color="#FF7F51"/>
<stop offset="1" stop-color="#FF9B54"/>
</linearGradient>
<linearGradient id="paint7_linear_54_157" x1="147.833" y1="57.09" x2="149.867" y2="57.09" gradientUnits="userSpaceOnUse">
<stop stop-color="#FBB040"/>
<stop offset="1" stop-color="#F99441"/>
</linearGradient>
<linearGradient id="paint8_linear_54_157" x1="130.561" y1="64.8737" x2="132.596" y2="64.8737" gradientUnits="userSpaceOnUse">
<stop stop-color="#FBB040"/>
<stop offset="1" stop-color="#F99441"/>
</linearGradient>
<clipPath id="clip0_54_157">
<rect width="171" height="118" fill="white"/>
</clipPath>
</defs>
</svg>
